<svg width="698.5700439453125px" height="172.64000549316407px" xmlns="http://www.w3.org/2000/svg" viewBox="-99.28502197265624 -11.320002746582034 698.5700439453125 172.64000549316407" style="background: rgb(254, 254, 255);" preserveAspectRatio="xMidYMid"><defs><filter id="editing-hover" x="-100%" y="-100%" width="300%" height="300%"><feFlood flood-color="#000000" result="flood"></feFlood><feComposite operator="in" in2="SourceAlpha" in="flood" result="shadow"></feComposite><feOffset dx="0.2" dy="-0.6" in="SourceGraphic" result="offset-1"></feOffset><feOffset dx="-0.2" dy="0.6" in="shadow" result="offset-2"></feOffset><feMerge><feMergeNode in="offset-2"></feMergeNode><feMergeNode in="offset-1"></feMergeNode></feMerge></filter></defs><g filter="url(#editing-hover)"><g transform="translate(0.5150166749954224, 108.04500389099121)"><path d="M33.46 1.15L33.46 1.15Q17.96 1.15 9.55-6.72L9.55-6.72L9.55-6.72Q1.15-14.60 1.15-31.90L1.15-31.90L1.15-31.90Q1.15-64.94 33.29-64.94L33.29-64.94L33.29-64.94Q41.08-64.94 47.77-63.06L47.77-63.06L47.77-63.06Q54.45-61.17 57.73-58.88L57.73-58.88L57.73-38.38L38.05-38.38L38.05-44.28L38.05-44.28Q38.05-47.40 36.65-48.87L36.65-48.87L36.65-48.87Q35.26-50.35 32.47-50.35L32.47-50.35L32.47-50.35Q29.68-50.35 28.29-48.87L28.29-48.87L28.29-48.87Q26.90-47.40 26.90-44.28L26.90-44.28L26.90-19.52L26.90-19.52Q26.90-16.40 28.29-14.92L28.29-14.92L28.29-14.92Q29.68-13.45 32.47-13.45L32.47-13.45L32.47-13.45Q35.26-13.45 36.65-14.92L36.65-14.92L36.65-14.92Q38.05-16.40 38.05-19.52L38.05-19.52L38.05-26.16L57.73-26.16L57.73-4.92L57.73-4.92Q54.37-2.62 47.77-0.74L47.77-0.74L47.77-0.74Q41.16 1.15 33.46 1.15L33.46 1.15ZM104.88-13.45L108.49-13.45L108.49 0L86.84 0L86.84-5.58L86.84-5.58Q85.03-2.95 81.80-0.90L81.80-0.90L81.80-0.90Q78.56 1.15 73.88 1.15L73.88 1.15L73.88 1.15Q67.73 1.15 64.21-2.13L64.21-2.13L64.21-2.13Q60.68-5.41 60.68-11.40L60.68-11.40L60.68-11.40Q60.68-26.90 87.00-27.31L87.00-27.31L87.00-27.31Q86.76-30.09 84.87-31.12L84.87-31.12L84.87-31.12Q82.98-32.14 78.47-32.14L78.47-32.14L78.47-32.14Q74.78-32.14 70.56-31.37L70.56-31.37L70.56-31.37Q66.34-30.59 62.81-29.27L62.81-29.27L62.81-44.36L62.81-44.36Q67.16-45.43 72.24-46.08L72.24-46.08L72.24-46.08Q77.33-46.74 82.16-46.74L82.16-46.74L82.16-46.74Q94.38-46.74 99.63-42.31L99.63-42.31L99.63-42.31Q104.88-37.88 104.88-28.62L104.88-28.62L104.88-13.45ZM86.84-18.70L86.84-19.19L86.84-19.19Q83.15-19.19 81.14-18.20L81.14-18.20L81.14-18.20Q79.13-17.22 79.13-14.92L79.13-14.92L79.13-14.92Q79.13-13.53 79.99-12.67L79.99-12.67L79.99-12.67Q80.85-11.81 82.41-11.81L82.41-11.81L82.41-11.81Q84.54-11.81 85.69-13.61L85.69-13.61L85.69-13.61Q86.84-15.42 86.84-18.70L86.84-18.70ZM146.12-46.74L146.12-46.74Q147.76-46.74 149.24-46.41L149.24-46.41L149.24-46.41Q150.72-46.08 151.70-45.59L151.70-45.59L151.70-29.93L151.70-29.93Q148.34-31.32 144.48-31.32L144.48-31.32L144.48-31.32Q139.32-31.32 136.53-28.62L136.53-28.62L136.53-28.62Q133.74-25.91 133.74-20.58L133.74-20.58L133.74-13.45L141.12-13.45L141.12 0L111.27 0L111.27-13.45L114.88-13.45L114.88-32.14L111.27-32.14L111.27-45.59L133.74-45.59L133.74-39.61L133.74-39.61Q136.04-43.05 138.99-44.90L138.99-44.90L138.99-44.90Q141.94-46.74 146.12-46.74L146.12-46.74ZM178.76 1.15L178.76 1.15Q167.12 1.15 160.56-4.96L160.56-4.96L160.56-4.96Q154.00-11.07 154.00-22.80L154.00-22.80L154.00-22.80Q154.00-34.52 160.56-40.63L160.56-40.63L160.56-40.63Q167.12-46.74 178.76-46.74L178.76-46.74L178.76-46.74Q190.32-46.74 195.45-40.71L195.45-40.71L195.45-40.71Q200.57-34.69 200.57-25.75L200.57-25.75L200.57-19.84L174.00-19.84L174.00-19.35L174.00-19.35Q174.00-16.32 175.81-14.88L175.81-14.88L175.81-14.88Q177.61-13.45 181.79-13.45L181.79-13.45L181.79-13.45Q186.80-13.45 191.31-14.19L191.31-14.19L191.31-14.19Q195.82-14.92 199.18-16.07L199.18-16.07L199.18-2.95L199.18-2.95Q196.31-1.39 190.77-0.12L190.77-0.12L190.77-0.12Q185.24 1.15 178.76 1.15L178.76 1.15ZM174.00-28.86L183.52-28.86L183.52-29.85L183.52-29.85Q183.52-32.64 182.33-33.87L182.33-33.87L182.33-33.87Q181.14-35.10 178.76-35.10L178.76-35.10L178.76-35.10Q176.38-35.10 175.19-33.83L175.19-33.83L175.19-33.83Q174.00-32.55 174.00-29.85L174.00-29.85L174.00-28.86ZM227.47 1.15L227.47 1.15Q215.82 1.15 209.26-4.96L209.26-4.96L209.26-4.96Q202.70-11.07 202.70-22.80L202.70-22.80L202.70-22.80Q202.70-34.52 209.26-40.63L209.26-40.63L209.26-40.63Q215.82-46.74 227.47-46.74L227.47-46.74L227.47-46.74Q239.03-46.74 244.16-40.71L244.16-40.71L244.16-40.71Q249.28-34.69 249.28-25.75L249.28-25.75L249.28-19.84L222.71-19.84L222.71-19.35L222.71-19.35Q222.71-16.32 224.52-14.88L224.52-14.88L224.52-14.88Q226.32-13.45 230.50-13.45L230.50-13.45L230.50-13.45Q235.50-13.45 240.01-14.19L240.01-14.19L240.01-14.19Q244.52-14.92 247.89-16.07L247.89-16.07L247.89-2.95L247.89-2.95Q245.02-1.39 239.48-0.12L239.48-0.12L239.48-0.12Q233.95 1.15 227.47 1.15L227.47 1.15ZM222.71-28.86L232.22-28.86L232.22-29.85L232.22-29.85Q232.22-32.64 231.04-33.87L231.04-33.87L231.04-33.87Q229.85-35.10 227.47-35.10L227.47-35.10L227.47-35.10Q225.09-35.10 223.90-33.83L223.90-33.83L223.90-33.83Q222.71-32.55 222.71-29.85L222.71-29.85L222.71-28.86ZM286.75-46.74L286.75-46.74Q288.39-46.74 289.87-46.41L289.87-46.41L289.87-46.41Q291.35-46.08 292.33-45.59L292.33-45.59L292.33-29.93L292.33-29.93Q288.97-31.32 285.11-31.32L285.11-31.32L285.11-31.32Q279.95-31.32 277.16-28.62L277.16-28.62L277.16-28.62Q274.37-25.91 274.37-20.58L274.37-20.58L274.37-13.45L281.75-13.45L281.75 0L251.90 0L251.90-13.45L255.51-13.45L255.51-32.14L251.90-32.14L251.90-45.59L274.37-45.59L274.37-39.61L274.37-39.61Q276.67-43.05 279.62-44.90L279.62-44.90L279.62-44.90Q282.57-46.74 286.75-46.74L286.75-46.74ZM342.35-50.35L342.35-63.80L369.25-63.80L369.25-50.35L365.15-50.35L365.15 0L342.10 0L318.08-36.98L318.08-13.45L322.01-13.45L322.01 0L295.12 0L295.12-13.45L299.22-13.45L299.22-50.35L295.12-50.35L295.12-63.80L324.72-63.80L346.29-30.91L346.29-50.35L342.35-50.35ZM396.63 1.15L396.63 1.15Q384.99 1.15 378.43-4.96L378.43-4.96L378.43-4.96Q371.87-11.07 371.87-22.80L371.87-22.80L371.87-22.80Q371.87-34.52 378.43-40.63L378.43-40.63L378.43-40.63Q384.99-46.74 396.63-46.74L396.63-46.74L396.63-46.74Q408.20-46.74 413.32-40.71L413.32-40.71L413.32-40.71Q418.45-34.69 418.45-25.75L418.45-25.75L418.45-19.84L391.88-19.84L391.88-19.35L391.88-19.35Q391.88-16.32 393.68-14.88L393.68-14.88L393.68-14.88Q395.49-13.45 399.67-13.45L399.67-13.45L399.67-13.45Q404.67-13.45 409.18-14.19L409.18-14.19L409.18-14.19Q413.69-14.92 417.05-16.07L417.05-16.07L417.05-2.95L417.05-2.95Q414.18-1.39 408.65-0.12L408.65-0.12L408.65-0.12Q403.11 1.15 396.63 1.15L396.63 1.15ZM391.88-28.86L401.39-28.86L401.39-29.85L401.39-29.85Q401.39-32.64 400.20-33.87L400.20-33.87L400.20-33.87Q399.01-35.10 396.63-35.10L396.63-35.10L396.63-35.10Q394.26-35.10 393.07-33.83L393.07-33.83L393.07-33.83Q391.88-32.55 391.88-29.85L391.88-29.85L391.88-28.86ZM440.83 1.15L440.83 1.15Q430.50 1.15 420.91-2.13L420.91-2.13L420.91-14.27L434.19-14.27L434.19-13.45L434.19-13.45Q434.19-9.51 439.19-9.51L439.19-9.51L439.19-9.51Q443.62-9.51 443.62-12.55L443.62-12.55L443.62-12.55Q443.62-14.19 442.35-15.01L442.35-15.01L442.35-15.01Q441.08-15.83 437.88-16.40L437.88-16.40L433.78-17.14L433.78-17.14Q420.91-19.43 420.91-31.73L420.91-31.73L420.91-31.73Q420.91-38.87 426.32-42.80L426.32-42.80L426.32-42.80Q431.73-46.74 440.91-46.74L440.91-46.74L440.91-46.74Q451.16-46.74 458.22-43.30L458.22-43.30L458.22-31.90L445.75-31.90L445.75-32.72L445.75-32.72Q445.75-34.36 444.64-35.22L444.64-35.22L444.64-35.22Q443.54-36.08 441.41-36.08L441.41-36.08L441.41-36.08Q437.31-36.08 437.31-33.46L437.31-33.46L437.31-33.46Q437.31-32.06 438.45-31.32L438.45-31.32L438.45-31.32Q439.60-30.59 442.64-29.93L442.64-29.93L447.31-29.03L447.31-29.03Q454.61-27.63 457.72-23.86L457.72-23.86L457.72-23.86Q460.84-20.09 460.84-14.19L460.84-14.19L460.84-14.19Q460.84-6.72 455.63-2.79L455.63-2.79L455.63-2.79Q450.43 1.15 440.83 1.15L440.83 1.15ZM483.72 1.15L483.72 1.15Q475.03 1.15 470.64-3.08L470.64-3.08L470.64-3.08Q466.25-7.30 466.25-17.30L466.25-17.30L466.25-32.14L462.64-32.14L462.64-45.59L462.64-45.59Q465.76-45.59 467.32-47.19L467.32-47.19L467.32-47.19Q468.88-48.79 468.88-51.58L468.88-51.58L468.88-55.27L486.26-55.27L486.26-45.59L497.33-45.59L497.33-32.14L486.26-32.14L486.26-18.70L486.26-18.70Q486.26-15.99 487.45-14.72L487.45-14.72L487.45-14.72Q488.64-13.45 491.02-13.45L491.02-13.45L491.02-13.45Q494.13-13.45 497.82-14.19L497.82-14.19L497.82-1.31L497.82-1.31Q495.53-0.41 491.63 0.37L491.63 0.37L491.63 0.37Q487.74 1.15 483.72 1.15L483.72 1.15Z" fill="#217a72"></path></g></g><style>text {
  font-size: 64px;
  font-family: Arial Black;
  dominant-baseline: central;
  text-anchor: middle;
}</style></svg>