<svg width="503.1311401367187px" height="120.8px" xmlns="http://www.w3.org/2000/svg" viewBox="-1.5655700683593636 14.600000000000001 503.1311401367187 120.8" style="background: rgba(0, 0, 0, 0);" preserveAspectRatio="xMidYMid"><defs><linearGradient id="editing-gradient-gradient" x1="0" x2="1" y1="0.5" y2="0.5" gradientUnits="objectBoundingBox"><stop offset="0" stop-color="#f0f"></stop><stop offset="1" stop-color="#0ff"></stop></linearGradient></defs><g><g transform="translate(73.0361715555191, 97.39999961853027)"><path d="M34.50-13.25L34.50-13.25L34.50-13.25Q36.16-12.03 36.16-9.44L36.16-9.44L36.16-9.44Q36.16-6.85 35.04-5.02L35.04-5.02L35.04-5.02Q33.92-3.20 31.74-1.79L31.74-1.79L31.74-1.79Q27.07 1.22 18.91 1.22L18.91 1.22L18.91 1.22Q10.75 1.22 6.30-3.04L6.30-3.04L6.30-3.04Q1.86-7.30 1.86-14.85L1.86-14.85L1.86-14.85Q1.86-25.54 7.42-33.66L7.42-33.66L7.42-33.66Q11.65-39.68 19.20-42.24L19.20-42.24L19.20-42.24Q23.10-43.52 26.94-43.52L26.94-43.52L26.94-43.52Q30.78-43.52 33.15-43.01L33.15-43.01L33.15-43.01Q35.52-42.50 37.31-41.47L37.31-41.47L37.31-41.47Q41.22-39.23 41.22-35.65L41.22-35.65L41.22-35.65Q41.22-32.38 38.14-29.95L38.14-29.95L38.14-29.95Q35.33-27.78 33.02-27.78L33.02-27.78L33.02-27.78Q30.72-27.78 29.76-28.10L29.76-28.10L29.76-28.10Q30.02-30.40 30.02-31.90L30.02-31.90L30.02-31.90Q30.02-33.41 29.95-34.50L29.95-34.50L29.95-34.50Q29.89-35.58 29.57-36.61L29.57-36.61L29.57-36.61Q28.93-38.98 26.98-38.98L26.98-38.98L26.98-38.98Q25.02-38.98 23.07-37.15L23.07-37.15L23.07-37.15Q21.12-35.33 19.46-32.26L19.46-32.26L19.46-32.26Q15.68-25.28 15.68-17.02L15.68-17.02L15.68-17.02Q15.68-13.06 17.92-10.78L17.92-10.78L17.92-10.78Q20.16-8.51 24.96-8.51L24.96-8.51L24.96-8.51Q28.54-8.51 31.94-10.88L31.94-10.88L31.94-10.88Q33.41-11.90 34.50-13.25ZM44.26-1.92L44.26-1.92L44.26-1.92Q42.75-3.58 42.08-6.21L42.08-6.21L42.08-6.21Q41.41-8.83 41.41-13.12L41.41-13.12L41.41-13.12Q41.41-17.41 42.88-21.31L42.88-21.31L42.88-21.31Q44.35-25.22 47.04-28.03L47.04-28.03L47.04-28.03Q52.54-33.92 61.63-33.92L61.63-33.92L61.63-33.92Q64.90-33.92 67.26-32.83L67.26-32.83L78.21-33.92L73.47-8.96L73.47-8.96Q73.28-8.19 73.28-6.78L73.28-6.78L73.28-6.78Q73.28-5.38 74.14-4.48L74.14-4.48L74.14-4.48Q75.01-3.58 76.29-3.46L76.29-3.46L76.29-3.46Q75.65-1.28 73.31 0L73.31 0L73.31 0Q70.98 1.28 68.35 1.28L68.35 1.28L68.35 1.28Q65.73 1.28 63.97 0.29L63.97 0.29L63.97 0.29Q62.21-0.70 61.70-2.37L61.70-2.37L61.70-2.37Q60.67-0.77 58.50 0.26L58.50 0.26L58.50 0.26Q56.32 1.28 53.41 1.28L53.41 1.28L53.41 1.28Q50.50 1.28 48.13 0.51L48.13 0.51L48.13 0.51Q45.76-0.26 44.26-1.92ZM57.76-27.90L57.76-27.90L57.76-27.90Q57.02-26.75 56.38-24.80L56.38-24.80L56.38-24.80Q55.74-22.85 54.69-17.63L54.69-17.63L54.69-17.63Q53.63-12.42 53.63-8.70L53.63-8.70L53.63-8.70Q53.63-4.99 54.21-3.90L54.21-3.90L54.21-3.90Q54.78-2.82 55.81-2.82L55.81-2.82L55.81-2.82Q57.86-2.82 59.36-4.77L59.36-4.77L59.36-4.77Q60.86-6.72 61.44-10.18L61.44-10.18L64.83-28.93L64.83-28.93Q63.49-30.08 61.92-30.08L61.92-30.08L61.92-30.08Q60.35-30.08 59.42-29.57L59.42-29.57L59.42-29.57Q58.50-29.06 57.76-27.90ZM101.70-17.98L101.70-17.98L101.70-17.98Q104-22.08 104-26.24L104-26.24L104-26.24Q104-28.99 102.02-28.99L102.02-28.99L102.02-28.99Q100.48-28.99 98.88-26.37L98.88-26.37L98.88-26.37Q97.22-23.74 96.70-20.35L96.70-20.35L93.38 0L80.13 1.28L86.66-32.64L97.22-33.92L96.06-27.46L96.06-27.46Q99.20-33.92 106.24-33.92L106.24-33.92L106.24-33.92Q109.95-33.92 111.97-32L111.97-32L111.97-32Q113.98-30.08 113.98-26.14L113.98-26.14L113.98-26.14Q113.98-22.21 111.39-19.71L111.39-19.71L111.39-19.71Q108.80-17.22 104.38-17.22L104.38-17.22L104.38-17.22Q102.46-17.22 101.70-17.98ZM140.93-10.82L140.93-10.82L140.93-10.82Q142.53-9.73 142.53-7.33L142.53-7.33L142.53-7.33Q142.53-4.93 141.31-3.39L141.31-3.39L141.31-3.39Q140.10-1.86 138.11-0.83L138.11-0.83L138.11-0.83Q134.02 1.28 129.60 1.28L129.60 1.28L129.60 1.28Q125.18 1.28 122.59 0.32L122.59 0.32L122.59 0.32Q120.00-0.64 118.27-2.43L118.27-2.43L118.27-2.43Q114.88-5.82 114.88-12.03L114.88-12.03L114.88-12.03Q114.88-21.70 120.13-27.58L120.13-27.58L120.13-27.58Q125.76-33.92 135.55-33.92L135.55-33.92L135.55-33.92Q141.63-33.92 144.64-31.36L144.64-31.36L144.64-31.36Q146.88-29.44 146.88-26.30L146.88-26.30L146.88-26.30Q146.88-15.04 127.42-15.04L127.42-15.04L127.42-15.04Q127.17-13.38 127.17-11.97L127.17-11.97L127.17-11.97Q127.17-9.02 128.48-7.90L128.48-7.90L128.48-7.90Q129.79-6.78 132.22-6.78L132.22-6.78L132.22-6.78Q134.66-6.78 137.25-7.90L137.25-7.90L137.25-7.90Q139.84-9.02 140.93-10.82ZM127.87-17.79L127.87-17.79L127.87-17.79Q132.42-17.79 135.04-20.61L135.04-20.61L135.04-20.61Q137.66-23.30 137.66-27.58L137.66-27.58L137.66-27.58Q137.66-29.06 137.12-29.86L137.12-29.86L137.12-29.86Q136.58-30.66 135.49-30.66L135.49-30.66L135.49-30.66Q134.40-30.66 133.47-30.24L133.47-30.24L133.47-30.24Q132.54-29.82 131.58-28.42L131.58-28.42L131.58-28.42Q129.22-25.22 127.87-17.79ZM174.98-10.82L174.98-10.82L174.98-10.82Q176.58-9.73 176.58-7.33L176.58-7.33L176.58-7.33Q176.58-4.93 175.36-3.39L175.36-3.39L175.36-3.39Q174.14-1.86 172.16-0.83L172.16-0.83L172.16-0.83Q168.06 1.28 163.65 1.28L163.65 1.28L163.65 1.28Q159.23 1.28 156.64 0.32L156.64 0.32L156.64 0.32Q154.05-0.64 152.32-2.43L152.32-2.43L152.32-2.43Q148.93-5.82 148.93-12.03L148.93-12.03L148.93-12.03Q148.93-21.70 154.18-27.58L154.18-27.58L154.18-27.58Q159.81-33.92 169.60-33.92L169.60-33.92L169.60-33.92Q175.68-33.92 178.69-31.36L178.69-31.36L178.69-31.36Q180.93-29.44 180.93-26.30L180.93-26.30L180.93-26.30Q180.93-15.04 161.47-15.04L161.47-15.04L161.47-15.04Q161.22-13.38 161.22-11.97L161.22-11.97L161.22-11.97Q161.22-9.02 162.53-7.90L162.53-7.90L162.53-7.90Q163.84-6.78 166.27-6.78L166.27-6.78L166.27-6.78Q168.70-6.78 171.30-7.90L171.30-7.90L171.30-7.90Q173.89-9.02 174.98-10.82ZM161.92-17.79L161.92-17.79L161.92-17.79Q166.46-17.79 169.09-20.61L169.09-20.61L169.09-20.61Q171.71-23.30 171.71-27.58L171.71-27.58L171.71-27.58Q171.71-29.06 171.17-29.86L171.17-29.86L171.17-29.86Q170.62-30.66 169.54-30.66L169.54-30.66L169.54-30.66Q168.45-30.66 167.52-30.24L167.52-30.24L167.52-30.24Q166.59-29.82 165.63-28.42L165.63-28.42L165.63-28.42Q163.26-25.22 161.92-17.79ZM203.14-17.98L203.14-17.98L203.14-17.98Q205.44-22.08 205.44-26.24L205.44-26.24L205.44-26.24Q205.44-28.99 203.46-28.99L203.46-28.99L203.46-28.99Q201.92-28.99 200.32-26.37L200.32-26.37L200.32-26.37Q198.66-23.74 198.14-20.35L198.14-20.35L194.82 0L181.57 1.28L188.10-32.64L198.66-33.92L197.50-27.46L197.50-27.46Q200.64-33.92 207.68-33.92L207.68-33.92L207.68-33.92Q211.39-33.92 213.41-32L213.41-32L213.41-32Q215.42-30.08 215.42-26.14L215.42-26.14L215.42-26.14Q215.42-22.21 212.83-19.71L212.83-19.71L212.83-19.71Q210.24-17.22 205.82-17.22L205.82-17.22L205.82-17.22Q203.90-17.22 203.14-17.98ZM223.04 0L216.00 0L223.68-42.24L237.44-42.24L247.42-13.18L252.74-42.24L259.84-42.18L252.03 0L237.38 0L228.16-27.97L223.04 0ZM287.36-10.82L287.36-10.82L287.36-10.82Q288.96-9.73 288.96-7.33L288.96-7.33L288.96-7.33Q288.96-4.93 287.74-3.39L287.74-3.39L287.74-3.39Q286.53-1.86 284.54-0.83L284.54-0.83L284.54-0.83Q280.45 1.28 276.03 1.28L276.03 1.28L276.03 1.28Q271.62 1.28 269.02 0.32L269.02 0.32L269.02 0.32Q266.43-0.64 264.70-2.43L264.70-2.43L264.70-2.43Q261.31-5.82 261.31-12.03L261.31-12.03L261.31-12.03Q261.31-21.70 266.56-27.58L266.56-27.58L266.56-27.58Q272.19-33.92 281.98-33.92L281.98-33.92L281.98-33.92Q288.06-33.92 291.07-31.36L291.07-31.36L291.07-31.36Q293.31-29.44 293.31-26.30L293.31-26.30L293.31-26.30Q293.31-15.04 273.86-15.04L273.86-15.04L273.86-15.04Q273.60-13.38 273.60-11.97L273.60-11.97L273.60-11.97Q273.60-9.02 274.91-7.90L274.91-7.90L274.91-7.90Q276.22-6.78 278.66-6.78L278.66-6.78L278.66-6.78Q281.09-6.78 283.68-7.90L283.68-7.90L283.68-7.90Q286.27-9.02 287.36-10.82ZM274.30-17.79L274.30-17.79L274.30-17.79Q278.85-17.79 281.47-20.61L281.47-20.61L281.47-20.61Q284.10-23.30 284.10-27.58L284.10-27.58L284.10-27.58Q284.10-29.06 283.55-29.86L283.55-29.86L283.55-29.86Q283.01-30.66 281.92-30.66L281.92-30.66L281.92-30.66Q280.83-30.66 279.90-30.24L279.90-30.24L279.90-30.24Q278.98-29.82 278.02-28.42L278.02-28.42L278.02-28.42Q275.65-25.22 274.30-17.79ZM304 0.19L304 0.19L304 0.19Q301.95 1.28 299.14 1.28L299.14 1.28L299.14 1.28Q296.32 1.28 294.78-0.16L294.78-0.16L294.78-0.16Q293.25-1.60 293.25-4.38L293.25-4.38L293.25-4.38Q293.25-7.17 295.20-9.89L295.20-9.89L295.20-9.89Q297.15-12.61 300.06-14.14L300.06-14.14L300.06-14.14Q302.98-15.68 305.02-16.58L305.02-16.58L300.99-25.86L300.99-25.86Q299.90-28.22 297.86-28.22L297.86-28.22L297.34-28.16L297.15-28.16L297.15-28.16Q297.54-30.40 300.16-32.13L300.16-32.13L300.16-32.13Q302.78-33.92 305.79-33.92L305.79-33.92L305.79-33.92Q310.66-33.92 312.90-29.06L312.90-29.06L313.41-28.03L316.16-21.25L316.16-21.25Q317.89-22.02 318.62-23.46L318.62-23.46L318.62-23.46Q319.36-24.90 319.36-27.74L319.36-27.74L319.36-27.74Q319.36-30.59 317.82-32.38L317.82-32.38L317.82-32.38Q320.26-33.92 323.46-33.92L323.46-33.92L323.46-33.92Q329.22-33.92 329.22-28.35L329.22-28.35L329.22-28.35Q329.22-22.27 321.60-18.75L321.60-18.75L317.76-16.96L321.22-8.06L321.22-8.06Q322.24-5.38 324.10-4.22L324.10-4.22L324.10-4.22Q324.86-3.71 325.76-3.65L325.76-3.65L325.76-3.65Q323.84-0.51 319.68 0.90L319.68 0.90L319.68 0.90Q318.40 1.28 316.67 1.28L316.67 1.28L316.67 1.28Q314.94 1.28 312.96 0.10L312.96 0.10L312.96 0.10Q310.98-1.09 310.27-2.94L310.27-2.94L306.75-12.10L306.75-12.10Q303.17-10.50 303.17-4.67L303.17-4.67L303.17-4.67Q303.17-1.98 304 0.19ZM331.97-6.40L331.97-6.40L331.97-6.40Q331.97-8.13 332.86-12.48L332.86-12.48L336.26-29.76L332.48-29.76L332.74-31.68L332.74-31.68Q340.42-33.98 347.84-39.62L347.84-39.62L350.91-39.62L349.38-32.64L354.37-32.64L353.79-29.76L348.86-29.76L345.60-12.48L345.60-12.48Q344.77-8.51 344.77-7.17L344.77-7.17L344.77-7.17Q344.77-4.10 347.46-3.46L347.46-3.46L347.46-3.46Q346.82-1.28 344.51 0L344.51 0L344.51 0Q342.21 1.28 338.94 1.28L338.94 1.28L338.94 1.28Q335.68 1.28 333.82-0.77L333.82-0.77L333.82-0.77Q331.97-2.82 331.97-6.40Z" fill="url(#editing-gradient-gradient)"></path></g></g><style>text {
  font-size: 64px;
  font-family: Arial Black;
  dominant-baseline: central;
  text-anchor: middle;
}</style></svg>