<svg width="392.71180419921876px" height="98.71999816894531px" xmlns="http://www.w3.org/2000/svg" viewBox="53.64409790039062 25.640000915527345 392.71180419921876 98.71999816894531" style="background: rgb(255, 255, 255);" preserveAspectRatio="xMidYMid"><defs><filter id="editing-hover" x="-100%" y="-100%" width="300%" height="300%"><feFlood flood-color="#052b4a" result="flood"></feFlood><feComposite operator="in" in2="SourceAlpha" in="flood" result="shadow"></feComposite><feOffset dx="-0.5" dy="0.1" in="SourceGraphic" result="offset-1"></feOffset><feOffset dx="0.5" dy="-0.1" in="shadow" result="offset-2"></feOffset><feMerge><feMergeNode in="offset-2"></feMergeNode><feMergeNode in="offset-1"></feMergeNode></feMerge></filter></defs><g filter="url(#editing-hover)"><g transform="translate(113.40728449821472, 92.50000381469727)"><path d="M26.95-10.35L26.95-10.35L26.95-10.35Q28.25-9.40 28.25-7.38L28.25-7.38L28.25-7.38Q28.25-5.35 27.38-3.93L27.38-3.93L27.38-3.93Q26.50-2.50 24.80-1.40L24.80-1.40L24.80-1.40Q21.15 0.95 14.78 0.95L14.78 0.95L14.78 0.95Q8.40 0.95 4.93-2.38L4.93-2.38L4.93-2.38Q1.45-5.70 1.45-11.60L1.45-11.60L1.45-11.60Q1.45-19.95 5.80-26.30L5.80-26.30L5.80-26.30Q9.10-31 15-33L15-33L15-33Q18.05-34 21.05-34L21.05-34L21.05-34Q24.05-34 25.90-33.60L25.90-33.60L25.90-33.60Q27.75-33.20 29.15-32.40L29.15-32.40L29.15-32.40Q32.20-30.65 32.20-27.85L32.20-27.85L32.20-27.85Q32.20-25.30 29.80-23.40L29.80-23.40L29.80-23.40Q27.60-21.70 25.80-21.70L25.80-21.70L25.80-21.70Q24-21.70 23.25-21.95L23.25-21.95L23.25-21.95Q23.45-23.75 23.45-24.93L23.45-24.93L23.45-24.93Q23.45-26.10 23.40-26.95L23.40-26.95L23.40-26.95Q23.35-27.80 23.10-28.60L23.10-28.60L23.10-28.60Q22.60-30.45 21.08-30.45L21.08-30.45L21.08-30.45Q19.55-30.45 18.03-29.03L18.03-29.03L18.03-29.03Q16.50-27.60 15.20-25.20L15.20-25.20L15.20-25.20Q12.25-19.75 12.25-13.30L12.25-13.30L12.25-13.30Q12.25-10.20 14-8.43L14-8.43L14-8.43Q15.75-6.65 19.50-6.65L19.50-6.65L19.50-6.65Q22.30-6.65 24.95-8.50L24.95-8.50L24.95-8.50Q26.10-9.30 26.95-10.35ZM34.58-1.50L34.58-1.50L34.58-1.50Q33.40-2.80 32.88-4.85L32.88-4.85L32.88-4.85Q32.35-6.90 32.35-10.25L32.35-10.25L32.35-10.25Q32.35-13.60 33.50-16.65L33.50-16.65L33.50-16.65Q34.65-19.70 36.75-21.90L36.75-21.90L36.75-21.90Q41.05-26.50 48.15-26.50L48.15-26.50L48.15-26.50Q50.70-26.50 52.55-25.65L52.55-25.65L61.10-26.50L57.40-7L57.40-7Q57.25-6.40 57.25-5.30L57.25-5.30L57.25-5.30Q57.25-4.20 57.92-3.50L57.92-3.50L57.92-3.50Q58.60-2.80 59.60-2.70L59.60-2.70L59.60-2.70Q59.10-1 57.28 0L57.28 0L57.28 0Q55.45 1 53.40 1L53.40 1L53.40 1Q51.35 1 49.98 0.23L49.98 0.23L49.98 0.23Q48.60-0.55 48.20-1.85L48.20-1.85L48.20-1.85Q47.40-0.60 45.70 0.20L45.70 0.20L45.70 0.20Q44 1 41.73 1L41.73 1L41.73 1Q39.45 1 37.60 0.40L37.60 0.40L37.60 0.40Q35.75-0.20 34.58-1.50ZM45.13-21.80L45.13-21.80L45.13-21.80Q44.55-20.90 44.05-19.38L44.05-19.38L44.05-19.38Q43.55-17.85 42.73-13.78L42.73-13.78L42.73-13.78Q41.90-9.70 41.90-6.80L41.90-6.80L41.90-6.80Q41.90-3.90 42.35-3.05L42.35-3.05L42.35-3.05Q42.80-2.20 43.60-2.20L43.60-2.20L43.60-2.20Q45.20-2.20 46.38-3.73L46.38-3.73L46.38-3.73Q47.55-5.25 48-7.95L48-7.95L50.65-22.60L50.65-22.60Q49.60-23.50 48.38-23.50L48.38-23.50L48.38-23.50Q47.15-23.50 46.42-23.10L46.42-23.10L46.42-23.10Q45.70-22.70 45.13-21.80ZM79.45-14.05L79.45-14.05L79.45-14.05Q81.25-17.25 81.25-20.50L81.25-20.50L81.25-20.50Q81.25-22.65 79.70-22.65L79.70-22.65L79.70-22.65Q78.50-22.65 77.25-20.60L77.25-20.60L77.25-20.60Q75.95-18.55 75.55-15.90L75.55-15.90L72.95 0L62.60 1L67.70-25.50L75.95-26.50L75.05-21.45L75.05-21.45Q77.50-26.50 83-26.50L83-26.50L83-26.50Q85.90-26.50 87.48-25L87.48-25L87.48-25Q89.05-23.50 89.05-20.43L89.05-20.43L89.05-20.43Q89.05-17.35 87.03-15.40L87.03-15.40L87.03-15.40Q85-13.45 81.55-13.45L81.55-13.45L81.55-13.45Q80.05-13.45 79.45-14.05ZM110.10-8.45L110.10-8.45L110.10-8.45Q111.35-7.60 111.35-5.73L111.35-5.73L111.35-5.73Q111.35-3.85 110.40-2.65L110.40-2.65L110.40-2.65Q109.45-1.45 107.90-0.65L107.90-0.65L107.90-0.65Q104.70 1 101.25 1L101.25 1L101.25 1Q97.80 1 95.78 0.25L95.78 0.25L95.78 0.25Q93.75-0.50 92.40-1.90L92.40-1.90L92.40-1.90Q89.75-4.55 89.75-9.40L89.75-9.40L89.75-9.40Q89.75-16.95 93.85-21.55L93.85-21.55L93.85-21.55Q98.25-26.50 105.90-26.50L105.90-26.50L105.90-26.50Q110.65-26.50 113-24.50L113-24.50L113-24.50Q114.75-23 114.75-20.55L114.75-20.55L114.75-20.55Q114.75-11.75 99.55-11.75L99.55-11.75L99.55-11.75Q99.35-10.45 99.35-9.35L99.35-9.35L99.35-9.35Q99.35-7.05 100.38-6.18L100.38-6.18L100.38-6.18Q101.40-5.30 103.30-5.30L103.30-5.30L103.30-5.30Q105.20-5.30 107.22-6.18L107.22-6.18L107.22-6.18Q109.25-7.05 110.10-8.45ZM99.90-13.90L99.90-13.90L99.90-13.90Q103.45-13.90 105.50-16.10L105.50-16.10L105.50-16.10Q107.55-18.20 107.55-21.55L107.55-21.55L107.55-21.55Q107.55-22.70 107.13-23.33L107.13-23.33L107.13-23.33Q106.70-23.95 105.85-23.95L105.85-23.95L105.85-23.95Q105-23.95 104.28-23.63L104.28-23.63L104.28-23.63Q103.55-23.30 102.80-22.20L102.80-22.20L102.80-22.20Q100.95-19.70 99.90-13.90ZM136.70-8.45L136.70-8.45L136.70-8.45Q137.95-7.60 137.95-5.73L137.95-5.73L137.95-5.73Q137.95-3.85 137-2.65L137-2.65L137-2.65Q136.05-1.45 134.50-0.65L134.50-0.65L134.50-0.65Q131.30 1 127.85 1L127.85 1L127.85 1Q124.40 1 122.38 0.25L122.38 0.25L122.38 0.25Q120.35-0.50 119-1.90L119-1.90L119-1.90Q116.35-4.55 116.35-9.40L116.35-9.40L116.35-9.40Q116.35-16.95 120.45-21.55L120.45-21.55L120.45-21.55Q124.85-26.50 132.50-26.50L132.50-26.50L132.50-26.50Q137.25-26.50 139.60-24.50L139.60-24.50L139.60-24.50Q141.35-23 141.35-20.55L141.35-20.55L141.35-20.55Q141.35-11.75 126.15-11.75L126.15-11.75L126.15-11.75Q125.95-10.45 125.95-9.35L125.95-9.35L125.95-9.35Q125.95-7.05 126.97-6.18L126.97-6.18L126.97-6.18Q128-5.30 129.90-5.30L129.90-5.30L129.90-5.30Q131.80-5.30 133.82-6.18L133.82-6.18L133.82-6.18Q135.85-7.05 136.70-8.45ZM126.50-13.90L126.50-13.90L126.50-13.90Q130.05-13.90 132.10-16.10L132.10-16.10L132.10-16.10Q134.15-18.20 134.15-21.55L134.15-21.55L134.15-21.55Q134.15-22.70 133.72-23.33L133.72-23.33L133.72-23.33Q133.30-23.95 132.45-23.95L132.45-23.95L132.45-23.95Q131.60-23.95 130.88-23.63L130.88-23.63L130.88-23.63Q130.15-23.30 129.40-22.20L129.40-22.20L129.40-22.20Q127.55-19.70 126.50-13.90ZM158.70-14.05L158.70-14.05L158.70-14.05Q160.50-17.25 160.50-20.50L160.50-20.50L160.50-20.50Q160.50-22.65 158.95-22.65L158.95-22.65L158.95-22.65Q157.75-22.65 156.50-20.60L156.50-20.60L156.50-20.60Q155.20-18.55 154.80-15.90L154.80-15.90L152.20 0L141.85 1L146.95-25.50L155.20-26.50L154.30-21.45L154.30-21.45Q156.75-26.50 162.25-26.50L162.25-26.50L162.25-26.50Q165.15-26.50 166.72-25L166.72-25L166.72-25Q168.30-23.50 168.30-20.43L168.30-20.43L168.30-20.43Q168.30-17.35 166.27-15.40L166.27-15.40L166.27-15.40Q164.25-13.45 160.80-13.45L160.80-13.45L160.80-13.45Q159.30-13.45 158.70-14.05ZM174.25 0L168.75 0L174.75-33L185.50-33L193.30-10.30L197.45-33L203-32.95L196.90 0L185.45 0L178.25-21.85L174.25 0ZM224.50-8.45L224.50-8.45L224.50-8.45Q225.75-7.60 225.75-5.73L225.75-5.73L225.75-5.73Q225.75-3.85 224.80-2.65L224.80-2.65L224.80-2.65Q223.85-1.45 222.30-0.65L222.30-0.65L222.30-0.65Q219.10 1 215.65 1L215.65 1L215.65 1Q212.20 1 210.18 0.25L210.18 0.25L210.18 0.25Q208.15-0.50 206.80-1.90L206.80-1.90L206.80-1.90Q204.15-4.55 204.15-9.40L204.15-9.40L204.15-9.40Q204.15-16.95 208.25-21.55L208.25-21.55L208.25-21.55Q212.65-26.50 220.30-26.50L220.30-26.50L220.30-26.50Q225.05-26.50 227.40-24.50L227.40-24.50L227.40-24.50Q229.15-23 229.15-20.55L229.15-20.55L229.15-20.55Q229.15-11.75 213.95-11.75L213.95-11.75L213.95-11.75Q213.75-10.45 213.75-9.35L213.75-9.35L213.75-9.35Q213.75-7.05 214.78-6.18L214.78-6.18L214.78-6.18Q215.80-5.30 217.70-5.30L217.70-5.30L217.70-5.30Q219.60-5.30 221.63-6.18L221.63-6.18L221.63-6.18Q223.65-7.05 224.50-8.45ZM214.30-13.90L214.30-13.90L214.30-13.90Q217.85-13.90 219.90-16.10L219.90-16.10L219.90-16.10Q221.95-18.20 221.95-21.55L221.95-21.55L221.95-21.55Q221.95-22.70 221.53-23.33L221.53-23.33L221.53-23.33Q221.10-23.95 220.25-23.95L220.25-23.95L220.25-23.95Q219.40-23.95 218.68-23.63L218.68-23.63L218.68-23.63Q217.95-23.30 217.20-22.20L217.20-22.20L217.20-22.20Q215.35-19.70 214.30-13.90ZM245.80-17.55L245.80-17.55L245.80-17.55Q246.50-19.40 246.50-21L246.50-21L246.50-21Q246.50-23.95 244.10-23.95L244.10-23.95L244.10-23.95Q242.85-23.95 241.82-22.83L241.82-22.83L241.82-22.83Q240.80-21.70 240.80-20.30L240.80-20.30L240.80-20.30Q240.80-19.30 241.60-18.50L241.60-18.50L241.60-18.50Q242.75-17.40 245.70-15.60L245.70-15.60L245.70-15.60Q248.65-13.80 249.78-12.33L249.78-12.33L249.78-12.33Q250.90-10.85 250.90-8.83L250.90-8.83L250.90-8.83Q250.90-6.80 249.93-4.95L249.93-4.95L249.93-4.95Q248.95-3.10 247.20-1.80L247.20-1.80L247.20-1.80Q243.45 1 237.45 1L237.45 1L237.45 1Q234.20 1 231.70-0.70L231.70-0.70L231.70-0.70Q229.20-2.35 229.20-4.30L229.20-4.30L229.20-4.30Q229.20-6.25 230.63-7.40L230.63-7.40L230.63-7.40Q232.05-8.55 234.15-8.55L234.15-8.55L234.15-8.55Q236.25-8.55 237.55-7.75L237.55-7.75L237.55-7.75Q236.90-6.10 236.90-5L236.90-5L236.90-5Q236.90-1.70 239.70-1.70L239.70-1.70L239.70-1.70Q240.90-1.70 241.70-2.45L241.70-2.45L241.70-2.45Q242.50-3.20 242.50-4.50L242.50-4.50L242.50-4.50Q242.50-7.05 238.20-9.75L238.20-9.75L238.20-9.75Q234.70-12.05 233.90-12.95L233.90-12.95L233.90-12.95Q232.55-14.55 232.55-16.55L232.55-16.55L232.55-16.55Q232.55-18.55 233.50-20.45L233.50-20.45L233.50-20.45Q234.45-22.35 236.20-23.70L236.20-23.70L236.20-23.70Q239.85-26.50 246.20-26.50L246.20-26.50L246.20-26.50Q249.45-26.50 251.38-25.20L251.38-25.20L251.38-25.20Q253.30-23.90 253.30-21.70L253.30-21.70L253.30-21.70Q253.30-19.50 251.97-18.25L251.97-18.25L251.97-18.25Q250.65-17 248.25-17L248.25-17L248.25-17Q246.60-17 245.80-17.55ZM255.95-5L255.95-5L255.95-5Q255.95-6.35 256.65-9.75L256.65-9.75L259.30-23.25L256.35-23.25L256.55-24.75L256.55-24.75Q262.55-26.55 268.35-30.95L268.35-30.95L270.75-30.95L269.55-25.50L273.45-25.50L273-23.25L269.15-23.25L266.60-9.75L266.60-9.75Q265.95-6.65 265.95-5.60L265.95-5.60L265.95-5.60Q265.95-3.20 268.05-2.70L268.05-2.70L268.05-2.70Q267.55-1 265.75 0L265.75 0L265.75 0Q263.95 1 261.40 1L261.40 1L261.40 1Q258.85 1 257.40-0.60L257.40-0.60L257.40-0.60Q255.95-2.20 255.95-5Z" fill="#2cb1bc"></path></g></g><style>text {
  font-size: 64px;
  font-family: Arial Black;
  dominant-baseline: central;
  text-anchor: middle;
}</style></svg>